PathFileType	4	(X/Y/Z)	C:/Users/beibeiliu/ov580/test_trc/User2\sequence.34_training_dense_left.trc
DataRate	CameraRate	NumFrames	NumMarkers	Units	OrigDataRate	OrigDataStartFrame	OrigNumFrames
120	120	9	19	mm	120	1	86
Frame#	Time	ThumbCMC			ThumbMCP			ThumbIP			ThumbTip			IndexMCP			IndexPIP			IndexTip			MiddleMCP			MiddlePIP			MiddleTip			RingMCP			RingPIP			RingTip			PinkyMCP			PinkyPIP			PinkyTip			BackHand1			BackHand2			BackHand3	
		X0	Y0	Z0	X1	Y1	Z1	X2	Y2	Z2	X3	Y3	Z3	X4	Y4	Z4	X5	Y5	Z5	X6	Y6	Z6	X7	Y7	Z7	X8	Y8	Z8	X9	Y9	Z9	X10	Y10	Z10	X11	Y11	Z11	X12	Y12	Z12	X13	Y13	Z13	X14	Y14	Z14	X15	Y15	Z15	X16	Y16	Z16	X17	Y17	Z17	X18	Y18	Z18	
0	0	-188.104	15.205	-13.5877	-175.724	7.51924	-44.6009	-174.984	-1.10031	-81.0308	-183.314	-11.7051	-106.984	-211.249	-1.40024	-91.8874	-203.26	-33.1485	-89.442	-199.112	-26.2807	-50.3378	-229.198	-14.5241	-88.2607	-218.862	-45.9668	-72.4476	-215.383	-26.5111	-36.6905	-241.506	-30.1519	-75.141	-229.471	-48.2952	-55.3014	-227.658	-22.2917	-28.4739	-259.023	-35.62	-60.6939	-242.098	-47.2418	-37.8169	-237.508	-20.469	-17.731	-258.199	21.7971	-41.4148	-256.156	28.1942	-0.555962	-223.892	35.3826	-23.9947	
1	0.00833333	-184.902	12.0586	-13.4749	-168.664	4.11788	-42.2056	-169.113	-11.323	-72.7058	-169.589	-26.2974	-98.3057	-200.326	-19.7065	-87.0297	-187.536	-48.9858	-75.5577	-187.23	-32.0472	-41.55	-213.701	-35.9422	-81.7658	-199.335	-59.5127	-63.216	-200.956	-34.5564	-28.3342	-229.318	-50.5737	-64.8278	-209.236	-60.1805	-42.7795	-214.867	-26.8061	-19.9366	-242.385	-51.8576	-51.5306	-221.125	-57.3778	-21.6125	-224.431	-31.2149	-6.92805	-254.023	1.57686	-36.9532	-252.696	16.0341	-4.4495	-220.8	24.1957	-27.0023	
2	0.0166667	-183.669	17.8586	-11.0729	-165.628	10.452	-37.0981	-158.736	-8.86653	-72.5968	-155.584	-24.022	-87.5724	-182.104	-26.08	-83.3535	-169.226	-48.3622	-69.1673	-167.894	-31.2564	-37.2666	-201.074	-42.8853	-74.5745	-177.847	-60.6957	-52.8563	-182.109	-34.7129	-22.5575	-207.31	-55.2368	-58.5149	-187.584	-59.3267	-29.8579	-201.402	-30.2237	-13.5923	-220.996	-65.0751	-42.7128	-201.148	-60.8895	-13.7412	-210.501	-33.4842	-3.13828	-248.056	-12.751	-36.1038	-249.455	4.82632	-5.06631	-222.523	18.5853	-25.4202	
3	0.025	-187.627	30.2402	-17.0908	-168.956	23.4151	-38.5566	-154.043	6.25641	-66.7253	-142.644	-7.115	-81.7481	-170.979	-20.4343	-78.1188	-145.313	-31.6178	-61.0913	-157.021	-19.2725	-32.5239	-180.545	-37.5432	-68.8508	-153.468	-46.3942	-42.4957	-169.838	-22.3205	-15.8677	-180.648	-52.9187	-50.6004	-164.266	-48.5908	-22.562	-181.879	-23.7646	-9.04379	-194.454	-60.3424	-36.3274	-174.916	-48.9405	-9.46104	-193.866	-26.0728	3.58669	-234.722	-24.256	-36.5897	-248.751	-8.42866	-6.16528	-223.702	15.2396	-30.2368	
4	0.0333333	-200.986	37.6705	-14.5659	-176.844	39.6206	-40.9888	-152.996	30.6468	-64.5676	-135.14	18.931	-79.1447	-160.755	-1.68859	-75.7229	-131.566	-5.0091	-60.9292	-144.252	11.3252	-30.0564	-153.267	-21.7686	-63.0829	-133.411	-13.0986	-33.489	-157.974	1.9974	-11.6595	-155.732	-38.5978	-38.9104	-143.583	-19.2567	-13.7444	-176.07	-6.76568	-4.55129	-161.957	-48.994	-22.5819	-154.493	-25.2036	-2.62245	-183.233	-11.576	7.69311	-218.294	-31.7457	-33.5292	-238.088	-15.1149	-9.30768	-223.549	8.85914	-31.4221	
5	0.0416667	-211.711	39.172	-22.0368	-191.529	49.2733	-43.3199	-162.609	46.009	-66.5444	-140.323	44.9663	-79.0695	-156.518	16.3288	-73.1997	-128.607	26.3436	-54.0255	-148.272	39.7793	-30.2073	-140.468	0.419116	-53.7179	-127.226	22.1472	-29.9148	-161.17	24.6762	-9.30849	-136.41	-9.58139	-29.7987	-136.747	13.7839	-5.80441	-169.897	12.4855	-0.269646	-139.415	-18.4788	-14.8929	-143.73	6.29483	3.97308	-176.449	3.14259	9.83879	-198.868	-27.843	-25.8627	-223.157	-23.9409	-2.89331	-220.866	5.29266	-31.6288	
6	0.05	-224.282	36.3158	-27.1484	-206.872	50.7312	-50.4376	-180.593	57.1587	-67.7178	-157.464	59.4086	-81.1036	-154.253	28.4673	-71.4787	-139.972	51.6743	-61.6702	-162.161	56.8108	-33.2924	-139.401	22.7713	-51.4928	-136.421	49.8924	-33.1565	-173.535	42.8391	-12.6654	-136.874	18.4514	-31.4002	-141.958	41.9326	-9.18618	-177.928	27.038	-5.34419	-132.632	10.4529	-9.08428	-152.463	33.4444	7.81012	-177.889	15.6175	8.38577	-184.888	-19.573	-19.7831	-210.332	-25.5864	3.83197	-217.319	-3.95131	-28.5806	
7	0.0583333	-239.632	31.3106	-26.4984	-225.269	47.4799	-52.8266	-199.868	56.5545	-80.7828	-180.404	64.299	-93.9327	-170.717	32.5141	-79.9441	-161.172	62.3852	-69.1253	-180.989	62.1127	-42.2673	-153.631	33.5178	-60.7936	-154.311	61.4152	-43.012	-190.773	48.4951	-24.1703	-147.084	32.9275	-39.6942	-155.689	54.8517	-17.3531	-184.034	34.8438	-10.2033	-140.309	29.9655	-17.4179	-161.843	47.4954	-2.90176	-184.23	20.0856	0.359408	-182.018	-16.7301	-17.2992	-206.785	-22.5797	4.08745	-222.89	-6.35012	-30.8619	
8	0.0666667	-251.994	24.2054	-30.5206	-241.781	38.1896	-58.6237	-223.744	47.0775	-85.3046	-202.314	52.424	-104.849	-196.734	21.6775	-91.1297	-186.442	54.6496	-85.6852	-210.567	53.3663	-58.336	-176.989	25.6206	-76.0839	-176.142	59.1428	-58.0048	-204.412	45.2149	-35.0089	-163.54	33.1559	-55.2425	-173.249	56.304	-36.7633	-200.196	32.0769	-24.8206	-155.037	28.2329	-33.9707	-175.844	50.5439	-20.2947	-194.586	23.3612	-8.73278	-192.578	-15.9654	-24.9582	-212.908	-22.2147	6.00764	-232.985	-11.2717	-28.5761	
